# xmcd
#
# Track frame offsets: 
#        150
#        19811
#        45932
#        70344
#        92383
#        111223
#        134422
#        155954
#        183910
#        203329
#        228661
#        246403
#        271312
#
# Disc length: 3914 seconds
#
# Revision: 1
# Processed by: cddbd v1.5.2PL0 Copyright (c) Steve Scherf et al.
# Submitted via: ExactAudioCopy v1.3
#
DISCID=af0f480d
DTITLE=秦基博 - All Time Best ハタモトヒロ [CD1]
DYEAR=2017
DGENRE=
TTITLE0=シンクロ
TTITLE1=僕らをつなぐもの
TTITLE2=鱗（うろこ）
TTITLE3=青い蝶
TTITLE4=キミ、メグル、ボク
TTITLE5=虹が消えた日
TTITLE6=フォーエバーソング
TTITLE7=朝が来る前に
TTITLE8=Halation
TTITLE9=アイ
TTITLE10=透明だった世界
TTITLE11=メトロ・フィルム
TTITLE12=水無月
EXTD=
EXTT0=
EXTT1=
EXTT2=
EXTT3=
EXTT4=
EXTT5=
EXTT6=
EXTT7=
EXTT8=
EXTT9=
EXTT10=
EXTT11=
EXTT12=
PLAYORDER=
